<svg aria-hidden="true" style="position: absolute; width: 0; height: 0; overflow: hidden;" version="1.1" xmlns="http://www.w3.org/2000/svg" xmlns:xlink="http://www.w3.org/1999/xlink">
<defs>
<symbol id="icon-games" viewBox="0 0 102 32">
<path fill="#0d0802" style="fill: var(--color1, #0d0802)" d="M102.017 8.094c-0.167-0.203-0.377-0.367-0.616-0.48s-0.5-0.171-0.765-0.171h-6.285c-0.413-0.002-0.814 0.137-1.135 0.395s-0.541 0.618-0.624 1.019l-0.585 3.586c-0.793-0.173-1.604-0.257-2.416-0.251h-0.336l0.388-2.638c0.053-0.257 0.048-0.522-0.016-0.776s-0.183-0.492-0.35-0.695c-0.167-0.203-0.378-0.367-0.617-0.479s-0.5-0.171-0.765-0.171h-6.28c-0.411 0-0.81 0.141-1.129 0.398s-0.537 0.616-0.62 1.016l-0.15 0.738c-0.403-0.589-0.918-1.096-1.516-1.491-1.086-0.666-2.344-1.006-3.621-0.978-1.147-0.007-2.282 0.24-3.321 0.722-0.321-0.27-0.727-0.419-1.148-0.42h-25.383c-0.295-0.003-0.586 0.067-0.846 0.203s-0.484 0.334-0.649 0.576l-0.052 0.077c-0.042-0.068-0.089-0.133-0.14-0.195-0.167-0.203-0.377-0.367-0.616-0.48s-0.5-0.171-0.765-0.171h-5.737c0.46 0-2.343-2.561-4.195-2.894s-2.348-3.217-4.578-3.238c-0.729 0-1.376 0.441-2.095 0.512 0.745 0.2 2.876 0.871 1.448 1.778-1.107 0.702-2.4-0.102-3.13-0.922-1.614-1.813-3.404-2.838-5.912-2.049 0.843 0.154 4.138 1.675 1.904 2.269-1.097 0.287-1.909-0.512-2.623-1.214-0.895-0.871-1.49-1.235-2.778-1.158-0.553 0.067-1.11 0.087-1.666 0.061-0.555-0.090-1.087-0.285-1.567-0.574-0.064 0.204-0.083 0.419-0.054 0.63s0.104 0.414 0.22 0.594c0.284 0.389 0.735 0.313 1.102 0.558 1.035 0.676-0.3 1.491-0.998 1.455-0.201 0.008-0.402-0.024-0.59-0.095s-0.36-0.179-0.505-0.317c-0.145-0.138-0.26-0.304-0.339-0.488s-0.118-0.381-0.117-0.581c-0.336 1.137-0.517 1.68 0.186 2.587 0.331 0.42 1.009 1.393-0.057 1.301-0.957-0.082-0.559-1.301-1.2-1.711-1.086-0.692-2.586 0.594-2.798 1.593 1.64-1.358 3.507 0.907 1.754 1.501-0.585 0.22-1.233 0.202-1.804-0.050s-1.018-0.719-1.242-1.297c0.481 1.025 0.083 1.952 1.505 2.234 0.993 0.2 2.25-0.241 3.104 0.487 1.004 0.866-0.16 2.561-1.34 2.264-1.267-0.287-1.748-2.177-3.104-2.269-1.060-0.072-1.867 1.337-2.436 2.008 1.035-0.702 1.96-0.973 2.798 0.097 0.419 0.538 0.657 1.148 1.226 1.562s0.957 0.446 1.552 0.835c1.402 0.973-0.367 1.537-1.417 1.025-1.205-0.62-1.247-1.721-2.778-1.757-1.329-0.056-3.398 0.958-3.398 0.958s2.747-0.082 3.921 0.584c0.364 0.194 0.645 0.512 0.791 0.895s0.148 0.805 0.005 1.19c-0.305 0.763-2.002 1.378-2.54 0.702-0.11-0.112-0.187-0.252-0.224-0.404s-0.031-0.311 0.016-0.461 0.134-0.284 0.252-0.388c0.118-0.105 0.261-0.176 0.416-0.206-0.647-0.113-1.909 0.056-1.552 1.89 0.264 1.45 2.069 1.383 3.202 1.147 1.035-0.22 2.845-0.927 2.721 0.686 0.012 0.236-0.043 0.47-0.16 0.676s-0.289 0.375-0.499 0.487c-0.209 0.112-0.447 0.164-0.684 0.149s-0.466-0.097-0.659-0.236c-1.102-0.599-2.204-1.24-3.254-0.102 0.941 0 2.204 0.277 2.55 1.25 0.070 0.159 0.099 0.334 0.082 0.507s-0.077 0.339-0.177 0.483c-0.099 0.144-0.234 0.26-0.391 0.337s-0.332 0.115-0.507 0.107c-0.698 0.036-1.128-0.692-0.89-1.624-0.29 0.268-0.469 0.634-0.503 1.025s0.079 0.782 0.317 1.096c0.864 1.025 5.090-0.143 4.278 1.158-0.228 0.374-0.869 0.328-1.221 0.466-1.21 0.471-0.916 1.424 0 2.111-0.041-2.049 2.705-0.881 3.709-0.307 1.94 1.112-1.433 2.111-2.457 0.451 0.802 2.761 3.621 2.587 5.69 1.388 0.864-0.583 1.925-0.806 2.954-0.62 0.859 0.179 2.069 0.886 0.833 1.537-1.040 0.417-2.203 0.417-3.243 0 0.812 1.122 1.852 2.008 3.305 2.080 1.681 0.087 3.166-0.978 4.743-1.368 0.517-0.133 3.481-0.471 2.359 0.733-0.755 0.814-2.586 0.604-3.564 0.41 0.719 0.612 1.619 0.977 2.565 1.038s1.887-0.182 2.68-0.695c0.776-0.456 1.598-1.158 2.586-1.076s0.285 0.758-0.341 1.296c1.030-0.001 2.047-0.237 2.969-0.692 0.713-0.493 1.278-1.167 1.635-1.952 0.71-1.562 1.199-3.213 1.454-4.908 2.069-0.174 4.216-0.031 6.3-0.031 0.292 0 0.58-0.071 0.838-0.207s0.478-0.332 0.642-0.572v-0.031c0.035 0.056 0.075 0.109 0.119 0.159 0.167 0.203 0.377 0.367 0.616 0.48s0.5 0.171 0.765 0.171h13.273c0.411-0.001 0.809-0.142 1.128-0.4s0.538-0.616 0.621-1.014l1.412-7.039h2.209l-2.395 11.782c-0.053 0.257-0.047 0.522 0.016 0.776s0.183 0.492 0.35 0.695c0.167 0.203 0.378 0.366 0.617 0.479s0.5 0.171 0.765 0.171h6.285c0.41-0.001 0.808-0.141 1.126-0.398s0.538-0.614 0.622-1.011l0.864-4.15c0.785 0.285 1.616 0.426 2.452 0.415 1.954 0.033 3.855-0.625 5.364-1.854 0.035 0.338 0.17 0.659 0.388 0.922 0.168 0.202 0.378 0.366 0.617 0.478s0.5 0.171 0.764 0.172h19.020c0.411-0.001 0.809-0.142 1.128-0.4s0.538-0.616 0.621-1.014l2.669-12.935c0.054-0.257 0.049-0.522-0.015-0.776s-0.184-0.492-0.352-0.694z"></path>
<path fill="#f5f5f5" style="fill: var(--color2, #f5f5f5)" d="M50.869 9.247l-2.669 12.935h-5.737l1.247-6.055h-0.124l-4.117 6.055h-6.212l2.669-12.935h5.737l-1.247 6.040h0.124l4.169-6.040h6.161z"></path>
<path fill="#f5f5f5" style="fill: var(--color2, #f5f5f5)" d="M62.999 9.247l-0.967 4.482h-4.593l-1.702 8.453h-6.29l2.669-12.935h10.883z"></path>
<path fill="#f5f5f5" style="fill: var(--color2, #f5f5f5)" d="M79.076 13.832c0 2.568-0.69 4.646-2.069 6.234-0.624 0.759-1.414 1.368-2.31 1.781s-1.875 0.621-2.863 0.606c-0.639 0.012-1.274-0.095-1.873-0.318-0.764-0.291-1.382-0.869-1.717-1.609l-1.516 7.080h-6.269l3.797-18.386h5.835l-0.45 2.203h0.103c0.527-0.795 1.252-1.442 2.105-1.88 0.841-0.418 1.77-0.631 2.71-0.62 0.939-0.034 1.867 0.207 2.669 0.692 1.231 0.806 1.847 2.213 1.847 4.221v-0.005zM71.115 13.13c-0.341 0.002-0.672 0.119-0.936 0.333-0.347 0.298-0.616 0.674-0.786 1.096-0.367 0.825-0.553 1.717-0.548 2.618-0.017 0.21 0.009 0.421 0.078 0.62s0.178 0.382 0.32 0.538c0.101 0.092 0.219 0.164 0.348 0.21s0.266 0.067 0.403 0.061c0.314 0.008 0.621-0.088 0.874-0.271 0.39-0.302 0.692-0.702 0.874-1.158 0.164-0.418 0.294-0.847 0.388-1.286 0.099-0.437 0.152-0.884 0.16-1.332 0.025-0.222-0.003-0.447-0.081-0.657s-0.204-0.399-0.369-0.552z"></path>
<path fill="#f5f5f5" style="fill: var(--color2, #f5f5f5)" d="M93.87 14.856c-0.848-0.958-2.271-1.245-4.268-1.245-0.15 0-0.517 0-1.174 0.062s-1.086 0.061-1.371 0.061l0.848-4.493h-6.29l-2.669 12.94h8.24c2.431 0 5.012-0.64 6.207-1.926 0.861-0.881 1.337-2.063 1.324-3.289 0.011-0.39-0.058-0.779-0.204-1.142s-0.365-0.693-0.644-0.968zM87.817 18.611c-0.433 0.36-0.988 0.543-1.552 0.512h-0.517l0.6-2.915h0.517c0.324-0.015 0.648 0.043 0.947 0.169 0.19 0.092 0.347 0.24 0.45 0.423s0.146 0.393 0.125 0.602c0.002 0.232-0.047 0.462-0.144 0.673s-0.238 0.399-0.415 0.551z"></path>
<path fill="#f5f5f5" style="fill: var(--color2, #f5f5f5)" d="M94.351 9.247l-0.812 3.924c0.732 0.218 1.39 0.633 1.898 1.199 0.6 0.693 0.919 1.582 0.895 2.495 0.019 1.329-0.482 2.614-1.397 3.586-0.786 0.851-1.805 1.458-2.933 1.747h5.964l2.669-12.935-6.285-0.015z"></path>
<path fill="#f5f5f5" style="fill: var(--color2, #f5f5f5)" d="M18.668 11.952c-0.218-0.952-0.699-1.825-1.391-2.52-1.231-1.347-2.167-1.778-1.686-2.049 0.662-0.392 1.366-0.708 2.1-0.943 1.185-0.405 1.474-0.435 1.914 0.169s1.852 2.695 1.671 3.929c-0.181 1.235-0.75 1.066-0.75 1.066l-1.857 0.348z"></path>
<path fill="#f5f5f5" style="fill: var(--color2, #f5f5f5)" d="M22.113 11.583c0.523-0.828 0.805-1.784 0.812-2.761 0.093-1.813-0.264-2.771 0.274-2.628 0.744 0.187 1.464 0.457 2.147 0.804 1.123 0.538 1.355 0.722 1.231 1.46s-0.616 3.202-1.619 3.945c-1.004 0.743-1.298 0.23-1.298 0.23l-1.547-1.050z"></path>
<path fill="#f5f5f5" style="fill: var(--color2, #f5f5f5)" d="M24.829 13.729c0.961-0.216 1.842-0.694 2.545-1.378 1.36-1.219 1.795-2.146 2.069-1.67 0.397 0.657 0.718 1.357 0.957 2.085 0.409 1.168 0.44 1.46-0.176 1.895s-2.721 1.834-3.962 1.655c-1.241-0.179-1.076-0.748-1.076-0.748l-0.357-1.839z"></path>
<path fill="#f5f5f5" style="fill: var(--color2, #f5f5f5)" d="M25.186 17.141c0.836 0.514 1.799 0.787 2.783 0.789 1.831 0.092 2.804-0.261 2.659 0.271-0.189 0.742-0.462 1.46-0.812 2.141-0.548 1.112-0.729 1.342-1.474 1.219s-3.233-0.589-3.988-1.583c-0.755-0.994-0.228-1.281-0.228-1.281l1.060-1.557z"></path>
<path fill="#f5f5f5" style="fill: var(--color2, #f5f5f5)" d="M23.013 19.815c0.218 0.952 0.7 1.825 1.391 2.52 1.231 1.347 2.167 1.783 1.686 2.049-0.662 0.392-1.366 0.708-2.1 0.943-1.185 0.41-1.479 0.441-1.914-0.169s-1.852-2.695-1.676-3.924c0.176-1.23 0.755-1.071 0.755-1.071l1.857-0.348z"></path>
<path fill="#f5f5f5" style="fill: var(--color2, #f5f5f5)" d="M19.568 20.189c-0.526 0.826-0.807 1.78-0.812 2.756-0.093 1.813 0.264 2.777-0.274 2.633-0.75-0.186-1.476-0.457-2.162-0.809-1.128-0.538-1.355-0.722-1.231-1.46s0.616-3.197 1.619-3.945 1.298-0.225 1.298-0.225l1.562 1.050z"></path>
<path fill="#f5f5f5" style="fill: var(--color2, #f5f5f5)" d="M16.868 18.037c-0.961 0.216-1.842 0.694-2.545 1.378-1.36 1.219-1.795 2.147-2.069 1.67-0.399-0.656-0.72-1.356-0.957-2.085-0.409-1.168-0.44-1.46 0.171-1.895s2.726-1.829 3.967-1.655 1.076 0.748 1.076 0.748l0.357 1.839z"></path>
<path fill="#f5f5f5" style="fill: var(--color2, #f5f5f5)" d="M16.496 14.626c-0.835-0.516-1.799-0.791-2.783-0.794-1.836-0.087-2.804 0.261-2.659-0.266 0.187-0.742 0.46-1.461 0.812-2.141 0.517-1.117 0.729-1.342 1.474-1.219s3.212 0.594 3.988 1.578c0.776 0.984 0.228 1.281 0.228 1.281l-1.060 1.562z"></path>
<path fill="#0d0802" style="fill: var(--color1, #0d0802)" d="M18.172 9.954c-0.495-0.65-1.036-1.264-1.619-1.839-0.517-0.441-0.605-0.512-0.46-0.589s0.621 0.348 1.107 0.912c0.486 0.563 1.148 1.445 1.148 1.445l-0.176 0.072z"></path>
<path fill="#0d0802" style="fill: var(--color1, #0d0802)" d="M23.189 9.82c0.114-0.806 0.171-1.619 0.171-2.433-0.083-0.686-0.083-0.774 0.093-0.727s0.191 0.681 0.134 1.424c-0.057 0.743-0.217 1.824-0.217 1.824l-0.181-0.087z"></path>
<path fill="#0d0802" style="fill: var(--color1, #0d0802)" d="M26.831 13.242c0.657-0.49 1.278-1.025 1.857-1.603 0.445-0.512 0.517-0.594 0.595-0.456s-0.352 0.599-0.921 1.112c-0.569 0.512-1.464 1.127-1.464 1.127l-0.067-0.179z"></path>
<path fill="#0d0802" style="fill: var(--color1, #0d0802)" d="M26.96 18.212c0.814 0.113 1.635 0.17 2.457 0.169 0.693-0.067 0.781-0.072 0.745 0.092s-0.688 0.19-1.433 0.133c-0.745-0.056-1.831-0.22-1.831-0.22l0.062-0.174z"></path>
<path fill="#0d0802" style="fill: var(--color1, #0d0802)" d="M23.51 21.818c0.494 0.65 1.033 1.264 1.614 1.839 0.517 0.441 0.6 0.512 0.46 0.589s-0.621-0.353-1.107-0.912c-0.486-0.558-1.148-1.445-1.148-1.445l0.181-0.072z"></path>
<path fill="#0d0802" style="fill: var(--color1, #0d0802)" d="M18.492 21.946c-0.114 0.806-0.171 1.619-0.171 2.433 0.062 0.686 0.067 0.774-0.093 0.738s-0.191-0.681-0.134-1.419c0.057-0.738 0.217-1.829 0.217-1.829l0.181 0.077z"></path>
<path fill="#0d0802" style="fill: var(--color1, #0d0802)" d="M14.851 18.524c-0.656 0.491-1.276 1.027-1.857 1.603-0.445 0.512-0.517 0.594-0.595 0.456s0.352-0.605 0.921-1.117c0.569-0.512 1.459-1.142 1.459-1.142l0.072 0.2z"></path>
<path fill="#0d0802" style="fill: var(--color1, #0d0802)" d="M14.716 13.56c-0.812-0.116-1.631-0.172-2.452-0.169-0.693 0.062-0.781 0.067-0.75-0.097s0.693-0.184 1.438-0.128c0.745 0.056 1.841 0.215 1.841 0.215l-0.078 0.179z"></path>
<path fill="#f5f5f5" style="fill: var(--color2, #f5f5f5)" d="M24.829 22.028c-1.228 0.782-2.664 1.186-4.124 1.16s-2.88-0.48-4.079-1.305c-1.199-0.825-2.125-1.984-2.659-3.33s-0.653-2.819-0.341-4.232c0.311-1.413 1.039-2.703 2.091-3.706s2.381-1.675 3.818-1.93 2.919-0.082 4.258 0.497c1.338 0.579 2.473 1.538 3.261 2.756 1.055 1.631 1.413 3.61 0.996 5.502s-1.575 3.543-3.22 4.59z"></path>
<path fill="#1d1d1b" style="fill: var(--color3, #1d1d1b)" d="M24.539 21.613c-1.144 0.728-2.48 1.104-3.84 1.079s-2.681-0.447-3.798-1.215c-1.117-0.768-1.978-1.847-2.476-3.101s-0.609-2.625-0.319-3.94c0.29-1.316 0.966-2.517 1.945-3.452s2.216-1.561 3.554-1.799c1.338-0.239 2.718-0.079 3.964 0.459s2.304 1.43 3.038 2.563c0.983 1.519 1.318 3.363 0.93 5.127s-1.466 3.302-2.999 4.279z"></path>
<path fill="#f5f5f5" style="fill: var(--color2, #f5f5f5)" d="M32.78 10.758l-0.812 3.642c0.118 0.849 0.137 1.708 0.057 2.561l1.448-6.511c0.036-0.169 0.058-0.34 0.067-0.512-0.173 0.32-0.426 0.592-0.734 0.789l-0.026 0.031z"></path>
<path fill="#f5f5f5" style="fill: var(--color2, #f5f5f5)" d="M29.521 25.409l0.083 0.133c0.164 0.255 0.271 0.541 0.316 0.84 0-0.077 0.041-0.154 0.057-0.23l1.448-6.516c-0.287 0.806-0.667 1.576-1.133 2.295l-0.771 3.478z"></path>
<path fill="#f5f5f5" style="fill: var(--color2, #f5f5f5)" d="M25.926 27.663l-3.512-0.768c-0.857 0.119-1.725 0.138-2.586 0.056l6.585 1.434c0.077 0.019 0.154 0.032 0.233 0.041-0.255-0.163-0.472-0.378-0.636-0.63l-0.083-0.133z"></path>
<path fill="#f5f5f5" style="fill: var(--color2, #f5f5f5)" d="M30.271 7.321l0.248-0.149c0.199-0.128 0.42-0.22 0.652-0.271l-6.554-1.429c0.813 0.285 1.591 0.662 2.317 1.122l3.336 0.727z"></path>
<path fill="#f5f5f5" style="fill: var(--color2, #f5f5f5)" d="M12.218 6.445l-0.083-0.133c-0.166-0.254-0.274-0.54-0.316-0.84l-0.062 0.231-1.448 6.516c0.29-0.803 0.67-1.571 1.133-2.29l0.776-3.484z"></path>
<path fill="#f5f5f5" style="fill: var(--color2, #f5f5f5)" d="M9.037 20.763l0.735-3.304c-0.12-0.849-0.14-1.708-0.057-2.561l-1.438 6.491c0.145-0.185 0.32-0.344 0.517-0.471l0.243-0.154z"></path>
<path fill="#f5f5f5" style="fill: var(--color2, #f5f5f5)" d="M15.808 4.17l3.517 0.768c0.857-0.119 1.725-0.138 2.586-0.056l-6.59-1.434c-0.077-0.019-0.154-0.032-0.233-0.041 0.255 0.163 0.472 0.378 0.636 0.63l0.083 0.133z"></path>
<path fill="#f5f5f5" style="fill: var(--color2, #f5f5f5)" d="M11.116 24.456c-0.309 0.199-0.666 0.312-1.034 0.328 0.156 0.063 0.317 0.112 0.481 0.149l6.559 1.45c-0.812-0.284-1.588-0.661-2.312-1.122l-3.693-0.804z"></path>
<path fill="#f5f5f5" style="fill: var(--color2, #f5f5f5)" d="M29.919 26.383c-0.044-0.299-0.152-0.585-0.316-0.84l-0.083-0.133-0.931-1.439c1.278-1.202 2.249-2.688 2.835-4.334 0.31-0.869 0.512-1.772 0.6-2.689 0.168-1.779-0.102-3.572-0.786-5.225l1.552-0.978h0.026c0.308-0.197 0.561-0.469 0.734-0.789 0.191-0.359 0.274-0.764 0.238-1.169s-0.188-0.789-0.439-1.11c-0.251-0.321-0.59-0.563-0.976-0.697s-0.804-0.156-1.202-0.062c-0.231 0.047-0.452 0.133-0.652 0.256l-0.238 0.149-1.381 0.876c-1.196-1.221-2.662-2.151-4.283-2.715-0.877-0.308-1.789-0.506-2.716-0.589-0.861-0.082-1.73-0.063-2.586 0.056-0.886 0.121-1.754 0.346-2.586 0.671l-0.931-1.439-0.083-0.133c-0.262-0.406-0.657-0.711-1.118-0.864s-0.962-0.145-1.418 0.022c-0.456 0.168-0.841 0.485-1.090 0.899s-0.347 0.9-0.279 1.377c0.041 0.3 0.149 0.587 0.316 0.84l0.083 0.133 0.931 1.439c-0.649 0.614-1.222 1.302-1.707 2.049-0.463 0.719-0.843 1.487-1.133 2.29-0.309 0.869-0.509 1.772-0.595 2.69-0.083 0.853-0.064 1.713 0.057 2.561 0.116 0.834 0.328 1.652 0.631 2.439l-1.366 0.866-0.238 0.154c-0.399 0.249-0.704 0.623-0.865 1.062s-0.17 0.919-0.026 1.364c0.145 0.445 0.435 0.83 0.824 1.093s0.857 0.391 1.328 0.363c0.368-0.016 0.725-0.129 1.034-0.328l1.552-0.978c1.228 1.306 2.756 2.3 4.454 2.898s3.516 0.783 5.302 0.539c0.887-0.118 1.755-0.343 2.586-0.671l0.947 1.378 0.088 0.133c0.262 0.406 0.657 0.711 1.118 0.864s0.962 0.145 1.418-0.022c0.456-0.168 0.841-0.485 1.090-0.899s0.347-0.9 0.279-1.377v0.020zM24.71 25.799c-1.344 0.516-2.781 0.753-4.221 0.697-2.803-0.095-5.455-1.281-7.381-3.299-0.463-0.485-0.878-1.011-1.242-1.573-0.414-0.634-0.76-1.309-1.035-2.013-0.85-2.266-0.89-4.752-0.115-7.044s2.32-4.252 4.377-5.553c1.826-1.155 3.964-1.734 6.13-1.66 1.293 0.051 2.566 0.328 3.761 0.82 2.010 0.83 3.715 2.252 4.883 4.073 0.364 0.56 0.672 1.154 0.921 1.772 0.554 1.361 0.814 2.821 0.766 4.288-0.049 1.279-0.329 2.539-0.828 3.719-0.557 1.317-1.379 2.507-2.416 3.499-0.513 0.495-1.076 0.936-1.681 1.316-0.602 0.383-1.241 0.704-1.909 0.958z"></path>
<path fill="#0d0802" style="fill: var(--color1, #0d0802)" d="M32.428 10.246c-0.258 0.167-0.56 0.255-0.869 0.251s-0.609-0.098-0.862-0.271c-0.254-0.173-0.45-0.418-0.563-0.702s-0.138-0.595-0.072-0.893 0.22-0.57 0.443-0.781c0.223-0.211 0.504-0.352 0.808-0.404s0.616-0.013 0.898 0.111 0.519 0.329 0.683 0.588c0.215 0.341 0.287 0.752 0.2 1.144s-0.326 0.736-0.666 0.956z"></path>
<path fill="#0d0802" style="fill: var(--color1, #0d0802)" d="M9.171 21.378c0.258-0.167 0.56-0.255 0.869-0.251s0.608 0.098 0.862 0.271c0.254 0.173 0.45 0.418 0.563 0.702s0.138 0.595 0.072 0.893c-0.066 0.298-0.22 0.57-0.443 0.781s-0.504 0.351-0.808 0.404-0.616 0.013-0.898-0.111c-0.281-0.125-0.519-0.329-0.683-0.588-0.215-0.341-0.287-0.752-0.2-1.144s0.326-0.736 0.665-0.956z"></path>
<path fill="#0d0802" style="fill: var(--color1, #0d0802)" d="M26.479 27.443c-0.169-0.255-0.257-0.555-0.254-0.86s0.099-0.603 0.274-0.854c0.175-0.251 0.422-0.446 0.708-0.558s0.601-0.137 0.902-0.071c0.301 0.066 0.576 0.218 0.789 0.439s0.355 0.499 0.408 0.8c0.053 0.301 0.013 0.61-0.112 0.889s-0.333 0.514-0.594 0.676c-0.344 0.213-0.759 0.284-1.155 0.198s-0.743-0.323-0.965-0.659z"></path>
<path fill="#0d0802" style="fill: var(--color1, #0d0802)" d="M15.254 4.411c0.169 0.255 0.258 0.555 0.255 0.861s-0.098 0.603-0.274 0.855c-0.175 0.252-0.422 0.446-0.709 0.558s-0.601 0.137-0.903 0.071-0.576-0.219-0.789-0.44c-0.213-0.221-0.355-0.5-0.407-0.801s-0.012-0.611 0.114-0.89c0.127-0.279 0.334-0.514 0.596-0.675 0.344-0.212 0.757-0.282 1.152-0.196s0.741 0.322 0.963 0.657z"></path>
<path fill="#f5f5f5" style="fill: var(--color2, #f5f5f5)" d="M32.226 9.949c-0.192 0.118-0.414 0.177-0.64 0.17s-0.444-0.080-0.628-0.21c-0.184-0.13-0.324-0.311-0.405-0.52s-0.096-0.437-0.046-0.655c0.050-0.218 0.165-0.416 0.329-0.57s0.37-0.256 0.592-0.294 0.451-0.010 0.657 0.081c0.206 0.091 0.381 0.24 0.502 0.429 0.082 0.125 0.138 0.265 0.166 0.412s0.024 0.298-0.008 0.443c-0.032 0.146-0.093 0.284-0.18 0.406s-0.197 0.226-0.324 0.306z"></path>
<path fill="#0d0802" style="fill: var(--color1, #0d0802)" d="M32.133 9.641l0.062 0.051c0.053-0.041 0.1-0.090 0.14-0.143 0.041-0.056 0.076-0.116 0.103-0.179l-0.072-0.041c-0.13-0.096-0.215-0.239-0.239-0.397s0.018-0.32 0.114-0.448l0.057-0.067c-0.044-0.052-0.094-0.099-0.15-0.138s-0.114-0.073-0.176-0.102c-0.012 0.026-0.028 0.050-0.047 0.072-0.097 0.128-0.241 0.213-0.401 0.236s-0.323-0.018-0.452-0.113l-0.062-0.051c-0.053 0.041-0.1 0.090-0.14 0.143-0.041 0.056-0.076 0.116-0.103 0.179l0.072 0.041c0.13 0.096 0.215 0.239 0.239 0.397s-0.018 0.32-0.114 0.448l-0.057 0.067c0.038 0.050 0.082 0.097 0.129 0.138 0.056 0.039 0.114 0.073 0.176 0.102l0.047-0.072c0.097-0.128 0.241-0.213 0.401-0.236s0.323 0.018 0.452 0.113z"></path>
<path fill="#f5f5f5" style="fill: var(--color2, #f5f5f5)" d="M14.582 6.183c-0.191 0.121-0.414 0.184-0.641 0.179s-0.448-0.075-0.634-0.204c-0.186-0.128-0.33-0.309-0.413-0.518s-0.101-0.438-0.053-0.658 0.162-0.42 0.325-0.576c0.163-0.156 0.37-0.261 0.593-0.301s0.454-0.013 0.662 0.077c0.208 0.090 0.385 0.239 0.508 0.428 0.162 0.253 0.216 0.559 0.151 0.852s-0.244 0.548-0.498 0.711z"></path>
<path fill="#0d0802" style="fill: var(--color1, #0d0802)" d="M14.484 5.876c0.025 0.016 0.047 0.035 0.067 0.056 0.050-0.046 0.097-0.095 0.14-0.149 0.039-0.057 0.074-0.117 0.103-0.179l-0.072-0.041c-0.13-0.096-0.215-0.239-0.239-0.397s0.018-0.32 0.114-0.448c0.016-0.024 0.035-0.047 0.057-0.067-0.090-0.104-0.203-0.187-0.331-0.241-0.011 0.026-0.025 0.050-0.041 0.072-0.096 0.123-0.235 0.205-0.39 0.229s-0.313-0.012-0.442-0.101l-0.067-0.051c-0.052 0.043-0.099 0.091-0.14 0.143-0.041 0.056-0.076 0.116-0.103 0.179l0.072 0.041c0.13 0.096 0.215 0.239 0.239 0.397s-0.018 0.32-0.115 0.448c-0.016 0.023-0.033 0.045-0.052 0.067 0.042 0.052 0.091 0.099 0.145 0.138 0.057 0.039 0.118 0.073 0.181 0.102 0.011-0.026 0.025-0.050 0.041-0.072 0.095-0.123 0.235-0.205 0.39-0.229s0.313 0.012 0.442 0.101z"></path>
<path fill="#f5f5f5" style="fill: var(--color2, #f5f5f5)" d="M10.594 23.652c-0.19 0.121-0.413 0.183-0.639 0.179s-0.446-0.075-0.632-0.203c-0.186-0.128-0.329-0.308-0.411-0.516s-0.101-0.437-0.052-0.656 0.162-0.418 0.325-0.574c0.163-0.155 0.369-0.259 0.592-0.298s0.452-0.012 0.659 0.078c0.207 0.090 0.383 0.239 0.504 0.428 0.162 0.253 0.216 0.559 0.151 0.852s-0.244 0.548-0.498 0.711z"></path>
<path fill="#0d0802" style="fill: var(--color1, #0d0802)" d="M10.495 23.345c0.025 0.016 0.047 0.035 0.067 0.056 0.052-0.044 0.099-0.094 0.14-0.149 0.038-0.056 0.073-0.114 0.103-0.174l-0.072-0.026c-0.13-0.096-0.215-0.239-0.239-0.397s0.018-0.32 0.114-0.448c0.016-0.024 0.035-0.047 0.057-0.067-0.046-0.050-0.096-0.096-0.15-0.138-0.057-0.039-0.118-0.073-0.181-0.102-0.011 0.026-0.025 0.050-0.041 0.072-0.047 0.064-0.107 0.118-0.176 0.159s-0.145 0.068-0.225 0.079c-0.079 0.011-0.16 0.007-0.238-0.013s-0.151-0.055-0.215-0.103l-0.067-0.051c-0.050 0.044-0.097 0.092-0.14 0.143-0.039 0.057-0.074 0.117-0.103 0.179l0.072 0.041c0.121 0.098 0.2 0.237 0.22 0.391s-0.020 0.309-0.112 0.434c-0.016 0.023-0.033 0.045-0.052 0.067 0.043 0.051 0.092 0.098 0.145 0.138 0.056 0.041 0.117 0.075 0.181 0.102 0.011-0.026 0.025-0.050 0.041-0.072 0.097-0.128 0.241-0.213 0.401-0.236s0.323 0.018 0.452 0.113z"></path>
<path fill="#f5f5f5" style="fill: var(--color2, #f5f5f5)" d="M28.388 27.581c-0.191 0.119-0.413 0.18-0.639 0.175s-0.445-0.077-0.63-0.206c-0.185-0.129-0.327-0.309-0.408-0.517s-0.099-0.436-0.050-0.655c0.049-0.218 0.162-0.417 0.325-0.572s0.369-0.258 0.591-0.297c0.222-0.039 0.451-0.012 0.658 0.078s0.382 0.238 0.504 0.426c0.081 0.126 0.137 0.266 0.163 0.413s0.023 0.298-0.010 0.443c-0.033 0.146-0.094 0.284-0.181 0.406s-0.197 0.226-0.324 0.306z"></path>
<path fill="#0d0802" style="fill: var(--color1, #0d0802)" d="M28.295 27.269l0.062 0.056c0.053-0.044 0.102-0.094 0.145-0.148 0.040-0.054 0.073-0.113 0.098-0.174-0.024-0.014-0.046-0.029-0.067-0.046-0.127-0.094-0.212-0.233-0.236-0.389s0.014-0.314 0.107-0.441l0.057-0.061c-0.044-0.052-0.094-0.099-0.15-0.138-0.054-0.041-0.113-0.075-0.176-0.102-0.012 0.026-0.028 0.050-0.047 0.072-0.097 0.128-0.241 0.213-0.401 0.236s-0.323-0.018-0.452-0.113l-0.062-0.056c-0.053 0.043-0.1 0.093-0.14 0.149-0.041 0.054-0.076 0.112-0.103 0.174l0.072 0.046c0.122 0.095 0.203 0.233 0.226 0.386s-0.014 0.308-0.102 0.434l-0.057 0.062c0.045 0.051 0.095 0.098 0.15 0.138 0.053 0.043 0.112 0.077 0.176 0.102l0.047-0.072c0.098-0.127 0.242-0.211 0.401-0.234s0.322 0.017 0.452 0.111z"></path>
<path fill="#f5f5f5" style="fill: var(--color2, #f5f5f5)" d="M16.175 11.562l2.198 0.056c1.071 0.031 1.764 0.225 2.069 0.594 0.194 0.247 0.31 0.544 0.336 0.855 0.022 0.312 0.022 0.625 0 0.938v0.722c0.008 0.346-0.038 0.692-0.134 1.025-0.222 0.599-0.838 0.886-1.852 0.861h-0.59l-0.088 3.35-2.183-0.056 0.243-8.345zM18.317 13.038l-0.057 2.105h0.166c0.089 0.014 0.181 0.003 0.264-0.034s0.153-0.096 0.202-0.171c0.068-0.162 0.1-0.337 0.093-0.512v-0.681c0.033-0.192-0.012-0.389-0.124-0.548-0.162-0.116-0.36-0.169-0.559-0.149z"></path>
<path fill="#f5f5f5" style="fill: var(--color2, #f5f5f5)" d="M26.334 15.445l-2.183-0.077 0.041-1.445c0-0.359 0-0.553 0-0.594-0.041-0.236-0.16-0.354-0.362-0.359s-0.357 0.113-0.414 0.369c0 0.051 0 0.266-0.031 0.63l-0.109 3.883c0 0.338 0 0.543 0 0.615 0.041 0.246 0.166 0.369 0.372 0.374s0.341-0.128 0.393-0.4c0-0.056 0-0.277 0.031-0.645v-1.025l2.183 0.056v0.323c0.005 0.516-0.045 1.031-0.15 1.537-0.067 0.256-0.185 0.496-0.348 0.705s-0.366 0.384-0.599 0.514c-0.475 0.256-1.012 0.375-1.552 0.343-1.319-0.031-2.105-0.512-2.374-1.363-0.143-0.599-0.193-1.215-0.15-1.829l0.124-2.433c0.002-0.385 0.025-0.77 0.067-1.153 0.046-0.381 0.192-0.743 0.424-1.050 0.259-0.303 0.59-0.537 0.962-0.684s0.776-0.2 1.174-0.156c0.491 0.006 0.974 0.118 1.417 0.328 0.224 0.094 0.426 0.234 0.592 0.41s0.292 0.386 0.37 0.614c0.144 0.562 0.197 1.143 0.155 1.721l-0.036 0.789z"></path>
</symbol>
<symbol id="icon-magazine" viewBox="0 0 97 32">
<path fill="#f5f5f5" style="fill: var(--color2, #f5f5f5)" d="M76.786 1.471c-0.145 2.045 0.484 3.995 2.372 4.993 0.436 1.807 0.533 3.757 0.436 5.754-0.194 2.093-0.484 4.185-1.065 6.135l-0.678 0.666v3.519c-0.145 0.047-0.339 0-0.533 0.047-0.048-0.285 0-0.618-0.048-0.951-0.823-0.047-0.775 0.808-0.871 1.379-0.145 1.284-0.29 2.758 0 4.042-0.387-0.095-0.823-0.143-1.259-0.19l-0.145-1.712c-0.242-0.048-0.581 0.047-0.775 0.19-0.436 0.381-0.533 0.904-0.726 1.427h-0.29l0.145-2.425 0.871-0.713c0.097-0.904 0.145-1.855 0.097-2.806l-1.646 1.76-3.147 6.325-0.049 0.048c0.484-0.048 0.968-0.19 1.453-0.285 0.048-0.19 0.097-0.38 0.048-0.618 0.145-0.047 0.339-0.095 0.533-0.095-0.629 1.997-2.808 3.091-4.793 3.234-1.598-1.094-3.098-2.378-4.551-3.757-2.711-6.943-2.663-16.217-0.291-23.303 0-0.808 0.871-0.143 1.307-0.238 0 0.476-0.339 1.046-0.823 1.284-0.387 0.095-0.387 0.618-0.533 0.951-0.339 1.189-0.484 2.425-0.484 3.709 1.21-0.713 2.033-1.997 2.566-3.186l1.452 0.143 0.29 4.756c-0.145 0.19-0.581-0.095-0.533 0.285l-0.387 6.61c-0.145 2.853 0.049 5.707 0.242 8.465 0.871 0.143 1.743-0.143 2.518-0.523 3.873-2.235 4.454-6.515 5.81-10.13 1.017-3.377 1.113-7.133 1.356-10.795 0.387-1.522 0.581-3.234 2.13-3.995z"></path>
<path fill="#f5f5f5" style="fill: var(--color2, #f5f5f5)" d="M18.349 6.037h0.484l0.194 1.617c1.985 1.189 2.276 3.329 2.614 5.279 1.646-1.617 2.566-3.567 3.776-5.374 0.872-1.332 2.324-1.76 3.873-1.522l1.694 6.42c-0.92 2.711-1.307 5.659-1.404 8.655-0.194 0.143-0.436 0.38-0.629 0.38l-0.145-0.19-0.194-8.418v-0.047c-1.888 0.095-3.195 2.092-3.728 3.662-0.968 2.616-1.646 5.374-2.179 8.227l-3.244-0.951-0.629-6.61c-0.194-0.095-0.436-0.048-0.678-0.048-1.162 3.947-1.017 8.465-2.082 12.46-0.242 0.666-0.533 1.379-1.21 1.807-0.823-1.474-2.324-2.758-2.372-4.613-0.387-0.143-0.823-0.047-1.259-0.047 0.533-5.136 0.823-10.463 2.518-15.171 0.726 0.19 1.791 0.38 2.469-0.143 0.871-0.856 1.113-1.997 1.307-3.139 0.145-0.904 0.29-1.76 0.29-2.711l-0.387-0.048v-0.951h0.872l0.048 1.474z"></path>
<path fill="#f5f5f5" style="fill: var(--color2, #f5f5f5)" d="M58.098 8.034c0.484 0.333 1.017 0.523 1.549 0.761 0.097 4.042-0.194 7.942-1.065 11.604l-0.775 0.618-0.145 6.705-1.307-0.285c-0.291-1.807-0.436-3.709-0.871-5.517-0.92-1.094-2.179-1.522-3.437-1.76 0.048 0.618 0.29 1.236 0.339 1.902-0.968 0.19-1.937 0.476-2.518 1.379-0.726 1.617-0.533 3.614-0.726 5.422-0.145 0.713-0.387 1.474-1.113 1.855-0.387 0.095-0.823-0.047-1.114-0.285-0.775-0.713-1.162-1.569-1.404-2.52-0.581-0.143-1.162-0.333-1.743-0.476l-0.242-2.33c0.145 0.048 0.339 0.048 0.484 0.048v1.332l0.678-0.476c0.339-2.521 1.162-4.851 0.871-7.609 0.145-0.047 0.29-0.047 0.436-0.047 0.097 0.143 0 0.428 0.097 0.571 0.097 0.048 0.242 0 0.387 0.048 0.048-0.476 0.097-1.046-0.048-1.522-0.387-0.19-0.871-0.047-1.307 0 0.726-1.094 1.646-2.14 2.13-3.329l0.871-6.658c0.097-0.19 0.242-0.333 0.387-0.428 0.968 0.048 2.179-0.428 2.808 0.476 0.436 2.616-1.21 4.661-0.726 7.324l0.145 1.141c1.113 0.808 2.179 1.759 3.631 1.617 0.775-0.571 0.871-1.474 0.968-2.378 0.048-3.186-0.242-6.563 0.871-9.321 0.387-0.095 0.726-0.238 1.114-0.285l0.775 2.425z"></path>
<path fill="#f5f5f5" style="fill: var(--color2, #f5f5f5)" d="M96.297 5.466c-0.194 0-0.436-0.048-0.629 0.048l-0.145 1.997h-0.484c-1.937-0.523-3.195-2.568-4.648-3.995-0.871-0.856-1.791-1.665-3.050-1.617-1.259 0.476-1.937 1.855-2.469 2.949-0.194 0-0.387-0.048-0.581 0.048-1.356 0.238-1.695 1.665-2.13 2.663h-0.533l-0.242 2.425c0.194 0.143 0.581-0.048 0.775 0.143 0.387 1.664 1.888 3.139 3.438 3.947 0.194 0.095 0.484 0.285 0.387 0.523l-8.763 10.463 0.29 2.093c0.968 0.238 1.791 0.951 2.614 1.617 2.856-1.712 5.277-4.518 7.649-6.991 0.049-0.19-0.097-0.38-0.145-0.523l-2.711 2.949c-0.145-0.143-0.194-0.38-0.29-0.523l1.356-1.474c0.048-0.333-0.049-0.666-0.049-0.951 1.695-1.617 2.518-3.567 3.534-5.469l0.775-0.047 0.387-1.141 0.823 0.048c0.581 1.712 0.726 3.662 0.823 5.564l0.048 7.038c0.145 0 0.29 0.048 0.436-0.047 0.194-1.332 0.291-2.663 0.533-3.995 0.145 0.048 0.339-0.047 0.484 0.048 0.097 1.427 0.097 2.996-0.145 4.375l2.13-0.048 0.194-1.236 0.823-6.705c0.339-4.566 1.017-9.844-0.484-14.172zM89.906 14.312c-1.646-0.095-3.147-0.666-4.067-2.093-0.581-0.999-0.871-2.188-0.629-3.424l2.421 2.235c0.048-0.285 0.048-0.618 0-0.951-0.242-0.238-0.484-0.333-0.726-0.571v-1.046h0.097c0.968 1.712 2.179 3.329 3.631 4.851-0.097 0.38-0.339 0.808-0.726 0.999z"></path>
<path fill="#f5f5f5" style="fill: var(--color2, #f5f5f5)" d="M44.009 16.452c-0.484-2.616-0.968-5.231-1.017-8.085-0.29-2.711-1.017-5.279-1.937-7.752-1.21 0.095-2.518 0-3.728 0.048-0.194 1.379-0.436 2.663-0.775 3.995l-2.856 9.654-1.259 5.517c-0.194 0.095-0.436 0.19-0.629 0.19-0.049-1.427 0-2.901-0.049-4.328-0.339 0.381-0.726 0.713-1.065 1.094-0.629 4.613-0.629 9.702 0.145 14.267 1.404-0.476 2.953-0.523 4.503-0.618l0.145-2.853 0.533-6.705 0.339-1.522c0.484-1.189 1.743-1.95 2.953-2.045 0.048 0.047 0.097 0.095 0.048 0.143l1.452 7.466 1.743-1.046c-0.097-1.094-0.242-2.235-0.29-3.329h0.097c0.823 0.047 0.484 1.046 0.823 1.569 0.194-0.095 0.387-0.143 0.533-0.285l-0.048-5.136 0.339-0.238zM38.538 15.168c-0.484 0.333-1.017 0.428-1.549 0.618l0.484-3.424c0.436 0.285 0.92 0.666 1.065 1.141-0.048 0.571 0.145 1.141 0 1.665z"></path>
<path fill="#f5f5f5" style="fill: var(--color2, #f5f5f5)" d="M4.89 19.543c0.242-0.143 0.533-0.38 0.533-0.666-0.242-0.476-0.871-0.476-1.307-0.38l0.048 1.189c0.242 0.095 0.484-0.095 0.726-0.143zM5.132 26.772c-0.048 0-0.048-0.047-0.048-0.095l-0.097-0.238c-0.097-0.333 0.097-0.808-0.145-1.094-0.194-0.095-0.387 0.048-0.533 0.095 0 0.523 0.048 1.046-0.29 1.427-0.048-0.333-0.048-0.666-0.145-0.951l-0.048 0.048c-0.242 0.666-0.339 1.617 0.242 2.14 0.048-0.143 0-0.333 0.145-0.428 0.048 0.143 0.097 0.333 0.097 0.476 0.048 0.19 0.194 0.333 0.387 0.285 0.339-0.095 0.29-0.476 0.387-0.761 0.145 0.143 0.097 0.333 0.145 0.476 0.242-0.238 0.339-0.476 0.436-0.761 0.048-0.571 0.097-1.284-0.339-1.712 0.048 0.476-0.048 0.808-0.194 1.094zM9.247 3.516c-0.29-0.618-0.968-1.141-1.646-1.284l-5.81-0.048-0.533 0.19c-0.629 0.285-1.162 0.856-1.259 1.522v24.967c0.145 0.761 0.823 1.474 1.598 1.617h6.003c0.775-0.095 1.501-0.713 1.694-1.474l0.048-24.777-0.097-0.713zM3.922 12.409c-0.048-0.19-0.242-0.285-0.387-0.333l-0.048 0.095c0 0.713 0 1.427-0.097 2.092v-2.806c0.194-0.19 0.678-0.19 0.871 0h1.646c0 0.38-0.048 0.808 0.048 1.189-0.097-0.666-0.871-0.476-1.356-0.476l-0.097 0.095v3.614c0.097 0.095 0.097 0.238 0.242 0.285h-1.452c0-0.047-0.048-0.095-0.048-0.095 0.339-0.048 0.678-0.285 0.775-0.618-0.145-0.999 0-2.045-0.097-3.044zM5.955 18.211c0.242 0.238 0.339 0.523 0.387 0.808-0.048 0.476-0.145 0.904-0.533 1.189-0.436 0.38-1.017 0.428-1.598 0.476l-0.145 1.712c-0.097 0.095-0.29 0.047-0.436 0.047l-0.048-0.095v-3.805c-0.145-0.143-0.533-0.238-0.484-0.523 0.92 0.095 1.937 0 2.856 0.19zM5.81 28.721c-0.436 0.523-1.065 0.713-1.695 0.476-0.968-0.523-1.065-1.617-1.017-2.663 0.097-0.713 0.242-1.569 1.017-1.855 0.726-0.238 1.549 0.095 1.888 0.761 0.484 0.951 0.436 2.378-0.194 3.281zM6.488 5.704c-0.048-0.095-0.097-0.143-0.145-0.19-0.194-0.095-0.29 0.095-0.339 0.238l-0.097 2.996c-0.048 0.095-0.097 0.238-0.145 0.38l-0.048-2.473c-0.048-0.143-0.242-0.238-0.339-0.143-0.968 0.904-1.791 1.95-2.711 2.806h-0.097c-0.097-1.474-0.048-3.044-0.048-4.565 0.194-0.285 0.823-0.238 1.017-0.048 0.048 0.618-0.145 1.379 0.339 1.807 0.339-0.048 0.436-0.38 0.629-0.618 0.242-0.38 0.436-0.856 0.775-1.189h1.114c0.145 0.285 0.048 0.666 0.097 0.999z"></path>
</symbol>
<symbol id="icon-pc-gamer" viewBox="0 0 150 32">
<path fill="#000" style="fill: var(--color4, #000)" d="M43.867 0.615v30.769h106.287v-30.769h-106.287z"></path>
<path fill="#474747" style="fill: var(--color5, #474747)" d="M0 0.615v30.769h43.867v-30.769h-43.867z"></path>
<path fill="#f5f5f5" style="fill: var(--color2, #f5f5f5)" d="M35.049 28.495c1.679-0.36 3.196-1.164 4.275-2.265 0.848-0.866 1.504-2.451 1.572-2.622l-4.459-2.541-0.566 0.867c-0.682 1.045-1.523 1.713-3.007 1.974-2.389 0.421-4.302-0.376-5.172-2.155-1.075-2.197-1.095-8.773-0.033-11.091 0.726-1.586 2.077-2.35 4.156-2.35 1.947 0 3.352 0.723 4.046 2.082l0.382 0.749 0.695-0.421c1.065-0.645 1.341-0.807 2.806-1.648l1.361-0.781-0.392-0.769c-0.553-1.083-1.933-2.5-3.060-3.141-2.799-1.593-7.968-1.732-11.126-0.3-1.164 0.528-2.549 1.755-3.289 2.913-1.3 2.036-1.962 5.824-1.786 10.225 0.167 4.184 0.84 6.592 2.361 8.455 1.737 2.127 4.143 3.060 7.908 3.066 1.187 0.002 2.684-0.109 3.327-0.247z"></path>
<path fill="#f5f5f5" style="fill: var(--color2, #f5f5f5)" d="M60.126 28.481c3.602-0.763 5.722-2.848 6.716-6.605 0.285-1.079 0.415-2.296 0.491-4.609l0.103-3.143h-11.701v4.111h6.206c0.029 1.196-0.263 2.381-0.701 3.487-0.99 1.992-3.415 2.831-5.98 2.069-1.54-0.457-2.48-1.688-2.894-3.789-0.33-1.676-0.157-7.765 0.252-8.846 0.753-1.992 2.072-2.844 4.409-2.847 2.119-0.003 3.343 0.909 4.219 2.178l0.308 0.447 4.694-2.659-0.455-0.898c-0.97-1.913-3.111-3.421-5.635-3.967-1.577-0.341-4.967-0.296-6.551 0.089-3.455 0.838-5.591 3.165-6.454 7.030-0.466 2.088-0.459 8.919 0.012 10.92 0.926 3.938 3.136 6.239 6.745 7.023 1.57 0.341 4.627 0.345 6.217 0.008z"></path>
<path fill="#f5f5f5" style="fill: var(--color2, #f5f5f5)" d="M2.815 3.43v25.047h5.255v-8.161h2.768c2.989-0.004 4.761-0.279 6.041-0.932 1.738-0.886 2.91-2.436 3.484-4.614 0.344-1.304 0.403-4.632 0.105-5.951-0.629-2.788-2.587-4.659-5.431-5.195-0.556-0.105-3.533-0.194-6.616-0.194h-5.607zM8.071 8.085h3.554c1.461 0 2.112 0.172 2.581 0.516 0.885 0.649 1.185 1.481 1.185 3.272s-0.3 2.622-1.185 3.272c-0.468 0.344-1.428 0.516-2.581 0.516h-3.554v-7.575z"></path>
<path fill="#f5f5f5" style="fill: var(--color2, #f5f5f5)" d="M73.704 3.43l-7.566 25.047h5.15l1.067-3.846h8.282l1.103 3.846h5.385l-7.684-25.047h-5.736zM76.62 10.823l0.018 0.023 2.569 8.877-5.437-0.018 2.851-8.883z"></path>
<path fill="#f5f5f5" style="fill: var(--color2, #f5f5f5)" d="M92.885 13.11l4.923 15.368h3.447l4.887-15.744 0.098 15.744h5.064v-25.047h-6.701l-4.892 15.826-4.827-15.826h-6.854l0.131 25.047h4.569l0.156-15.368z"></path>
<path fill="#f5f5f5" style="fill: var(--color2, #f5f5f5)" d="M128.383 23.693h-10.323v-5.629h9.76v-4.878h-9.76v-4.878h10.323v-4.878h-15.578l0.125 25.047h15.453v-4.784z"></path>
<path fill="#f5f5f5" style="fill: var(--color2, #f5f5f5)" d="M129.701 3.43l-0.017 25.047h5.173l0.106-8.361h3.191l3.53 8.361h5.467l-3.742-9.023c3.628-2.517 3.982-4.868 3.905-9.363-0.214-2.721-1.249-4.566-3.137-5.593-1.668-0.907-2.942-1.063-8.986-1.067h-5.49zM134.951 8.12h4.015c1.717 0 2.239 0.208 2.836 1.407 0.528 1.062 0.522 3.685-0.012 4.608-0.633 1.096-1.25 1.302-2.823 1.302h-4.015v-7.317z"></path>
<path fill="#000" style="fill: var(--color4, #000)" d="M147.152 4.744c0.453-0.452 0.468-0.632 0.081-1.018-0.577-0.577-1.394-0.238-1.394 0.578 0 0.376 0.412 0.795 0.798 0.81 0.078 0.003 0.31-0.163 0.516-0.37z"></path>
<path fill="#000" style="fill: var(--color4, #000)" d="M146.038 4.345c-0.016-0.406 0.475-0.796 0.83-0.66 0.156 0.060 0.273 0.301 0.262 0.537-0.017 0.321-0.043 0.346-0.108 0.097-0.047-0.182-0.177-0.274-0.288-0.206-0.121 0.074-0.149 0.037-0.069-0.092 0.074-0.119 0.042-0.217-0.071-0.217-0.112 0-0.281 0.19-0.374 0.422-0.114 0.286-0.172 0.323-0.181 0.117z"></path>
<path fill="#f5f5f5" style="fill: var(--color2, #f5f5f5)" d="M146.689 3.586c0.238 0 0.441 0.085 0.612 0.255 0.17 0.17 0.256 0.375 0.256 0.613s-0.085 0.443-0.255 0.614c-0.17 0.17-0.374 0.256-0.613 0.256-0.24 0-0.446-0.085-0.615-0.255-0.171-0.17-0.256-0.375-0.256-0.614s0.085-0.443 0.256-0.613c0.17-0.17 0.375-0.255 0.615-0.255zM146.687 5.181c0.198 0 0.369-0.071 0.512-0.214s0.214-0.313 0.214-0.513c0-0.2-0.071-0.37-0.214-0.512-0.142-0.142-0.313-0.212-0.512-0.212s-0.37 0.071-0.512 0.212c-0.142 0.142-0.213 0.312-0.213 0.512s0.071 0.371 0.213 0.513c0.142 0.142 0.313 0.214 0.512 0.214zM147.092 4.936h-0.183c-0.117-0.211-0.192-0.33-0.228-0.357s-0.080-0.040-0.133-0.040h-0.090v0.397h-0.151v-0.934h0.324c0.097 0 0.171 0.007 0.224 0.021 0.052 0.014 0.094 0.043 0.127 0.088 0.032 0.045 0.048 0.093 0.048 0.143 0 0.064-0.023 0.122-0.069 0.174-0.047 0.052-0.112 0.081-0.198 0.088v0.005c0.055 0.013 0.128 0.091 0.218 0.234l0.112 0.182zM146.458 4.41h0.183c0.085 0 0.144-0.012 0.177-0.037 0.032-0.025 0.049-0.060 0.049-0.104s-0.016-0.078-0.048-0.103-0.095-0.037-0.19-0.037h-0.172v0.281z"></path>
</symbol>
<symbol id="icon-steam-2" viewBox="0 0 102 32">
<path fill="#f5f5f5" style="fill: var(--color2, #f5f5f5)" d="M15.349 0.615c-8.11 0-14.723 6.223-15.349 14.15l8.249 3.407c0.696-0.487 1.531-0.765 2.436-0.765 0.070 0 0.174 0 0.244 0l3.689-5.285c0-0.035 0-0.035 0-0.070 0-3.199 2.61-5.806 5.813-5.806s5.813 2.608 5.813 5.806c0 3.199-2.61 5.806-5.813 5.806-0.035 0-0.104 0-0.139 0l-5.221 3.72c0 0.070 0 0.139 0 0.209 0 2.399-1.949 4.346-4.351 4.346-2.123 0-3.863-1.495-4.281-3.512l-5.917-2.434c1.81 6.467 7.762 11.195 14.827 11.195 8.493 0 15.384-6.884 15.384-15.367 0-8.518-6.891-15.402-15.384-15.402z"></path>
<path fill="#f5f5f5" style="fill: var(--color2, #f5f5f5)" d="M9.641 23.944l-1.88-0.765c0.348 0.695 0.905 1.286 1.671 1.599 1.671 0.695 3.585-0.104 4.281-1.773 0.348-0.8 0.348-1.704 0-2.503s-0.975-1.425-1.775-1.773c-0.801-0.348-1.671-0.313-2.402-0.035l1.949 0.8c1.218 0.521 1.81 1.912 1.288 3.129-0.487 1.252-1.914 1.843-3.132 1.321z"></path>
<path fill="#f5f5f5" style="fill: var(--color2, #f5f5f5)" d="M24.294 12.019c0-2.121-1.74-3.859-3.863-3.859s-3.863 1.738-3.863 3.859 1.74 3.859 3.863 3.859c2.123 0 3.863-1.704 3.863-3.859zM17.507 12.019c0-1.599 1.288-2.886 2.924-2.886s2.924 1.286 2.924 2.886-1.288 2.886-2.924 2.886c-1.636 0-2.924-1.286-2.924-2.886z"></path>
<path fill="#f5f5f5" style="fill: var(--color2, #f5f5f5)" d="M47.196 11.15l-1.044 1.808c-0.801-0.556-1.88-0.904-2.819-0.904-1.079 0-1.74 0.452-1.74 1.252 0 0.974 1.183 1.182 2.924 1.808 1.88 0.661 2.959 1.46 2.959 3.164 0 2.364-1.845 3.685-4.525 3.685-1.288 0-2.889-0.348-4.072-1.078l0.766-2.017c0.975 0.521 2.158 0.834 3.202 0.834 1.427 0 2.088-0.522 2.088-1.286 0-0.869-1.009-1.147-2.68-1.704-1.88-0.626-3.167-1.46-3.167-3.372 0-2.156 1.74-3.407 4.211-3.407 1.705 0.070 3.098 0.626 3.898 1.217z"></path>
<path fill="#f5f5f5" style="fill: var(--color2, #f5f5f5)" d="M55.236 12.297v9.492h-2.402v-9.492h-3.55v-2.086h9.467v2.086h-3.515z"></path>
<path fill="#f5f5f5" style="fill: var(--color2, #f5f5f5)" d="M63.868 12.262v2.642h4.664v2.051h-4.664v2.747h5.395v2.086h-7.796v-11.578h7.796v2.051h-5.395z"></path>
<path fill="#f5f5f5" style="fill: var(--color2, #f5f5f5)" d="M74.692 19.529l-0.766 2.26h-2.541l4.351-11.578h2.436l4.455 11.578h-2.645l-0.8-2.26h-4.49zM76.955 12.958l-1.601 4.624h3.202l-1.601-4.624z"></path>
<path fill="#f5f5f5" style="fill: var(--color2, #f5f5f5)" d="M95.123 14.696l-3.167 6.745h-1.392l-3.098-6.71v7.058h-2.332v-11.578h2.297l3.898 8.344 3.759-8.344h2.367v11.578h-2.332v-7.093z"></path>
<path fill="#f5f5f5" style="fill: var(--color2, #f5f5f5)" d="M102.154 11.671c0 1.008-0.731 1.599-1.601 1.599s-1.601-0.626-1.601-1.599c0-1.008 0.766-1.599 1.601-1.599 0.835-0.035 1.601 0.591 1.601 1.599zM99.195 11.671c0 0.834 0.592 1.356 1.323 1.356s1.323-0.521 1.323-1.356-0.592-1.356-1.323-1.356c-0.731 0-1.323 0.521-1.323 1.356zM100.553 10.837c0.418 0 0.557 0.209 0.557 0.452 0 0.209-0.139 0.348-0.278 0.452l0.383 0.695h-0.313l-0.313-0.626h-0.348v0.626h-0.244v-1.599h0.557zM100.274 11.567h0.278c0.174 0 0.279-0.104 0.279-0.243s-0.070-0.243-0.279-0.243h-0.278v0.487z"></path>
</symbol>
<symbol id="icon-logo" viewBox="0 0 94 32">
<path fill="#61a568" style="fill: var(--color6, #61a568)" d="M35.526 10.468c-0.145-0.149-0.335-0.241-0.538-0.261s-0.406 0.033-0.576 0.151c-0.169 0.118-0.294 0.292-0.353 0.494s-0.048 0.419 0.030 0.613 0.219 0.355 0.399 0.455c0.18 0.099 0.387 0.131 0.587 0.090s0.38-0.152 0.51-0.315 0.2-0.367 0.201-0.578c0-0.121-0.023-0.24-0.068-0.352s-0.11-0.213-0.193-0.298z"></path>
<path fill="#61a568" style="fill: var(--color6, #61a568)" d="M39.299 7.861c0.123-0.128 0.207-0.291 0.241-0.468s0.016-0.361-0.050-0.528c-0.067-0.167-0.18-0.31-0.325-0.41s-0.316-0.155-0.49-0.155c-0.176-0.003-0.35 0.048-0.498 0.147s-0.264 0.242-0.333 0.409c-0.069 0.168-0.088 0.353-0.055 0.532s0.118 0.344 0.242 0.473c0.082 0.088 0.181 0.158 0.29 0.206s0.226 0.072 0.344 0.072c0.118 0 0.235-0.025 0.344-0.072s0.208-0.118 0.29-0.206z"></path>
<path fill="#61a568" style="fill: var(--color6, #61a568)" d="M39.254 14.317c-0.083-0.086-0.181-0.154-0.289-0.2s-0.224-0.070-0.341-0.070c-0.117 0-0.233 0.024-0.341 0.070s-0.206 0.114-0.289 0.2c-0.124 0.128-0.208 0.291-0.242 0.469s-0.017 0.362 0.050 0.529c0.067 0.167 0.181 0.31 0.326 0.411s0.317 0.154 0.492 0.154c0.175 0 0.346-0.054 0.492-0.154s0.259-0.243 0.326-0.411c0.067-0.167 0.085-0.351 0.050-0.529s-0.118-0.341-0.242-0.469h0.006z"></path>
<path fill="#61a568" style="fill: var(--color6, #61a568)" d="M47.702 6.965c-0.496-1.839-1.516-3.48-2.927-4.711-3.081-2.69-7.106-2.804-11.751-1.229-0.89 0.298-1.82 0.447-2.756 0.443h-11.091c-0.934 0.004-1.864-0.146-2.753-0.443-4.646-1.575-8.67-1.462-11.751 1.229-1.411 1.232-2.431 2.873-2.93 4.711-2.382 8.79-2.415 16.342 0.473 22.369 1.314 2.727 3.348 3.23 5.905 2.108 0.745-0.332 1.446-0.761 2.086-1.275 1.846-1.463 3.388-3.295 4.536-5.387 0.2-0.37 0.393-0.746 0.554-1.139 1.288-2.833 3.245-4.462 6.23-4.145l3.197 0.067 3.194-0.067c2.994-0.303 4.926 1.325 6.233 4.145 0.174 0.38 0.354 0.756 0.554 1.125 1.146 2.097 2.688 3.934 4.536 5.401 0.641 0.514 1.342 0.943 2.086 1.275 2.556 1.122 4.591 0.619 5.905-2.108 2.888-6.027 2.846-13.578 0.47-22.369zM10.993 17.314c-1.19 0.001-2.353-0.364-3.342-1.047s-1.761-1.654-2.216-2.791c-0.456-1.136-0.575-2.387-0.344-3.594s0.804-2.315 1.645-3.185c0.841-0.87 1.913-1.463 3.079-1.703s2.376-0.117 3.475 0.353c1.099 0.471 2.039 1.268 2.7 2.291s1.014 2.226 1.014 3.456c-0.001 1.649-0.634 3.23-1.761 4.396s-2.655 1.822-4.25 1.824zM23.488 17.287h-2.798v-1.282h2.798v1.282zM28.759 17.287h-2.798v-1.282h2.798v1.282zM37.001 5.487c0.444-0.459 1.046-0.716 1.674-0.716s1.23 0.258 1.674 0.716c0.331 0.342 0.556 0.778 0.647 1.253s0.044 0.967-0.135 1.414c-0.179 0.447-0.483 0.829-0.872 1.098s-0.847 0.412-1.315 0.412c-0.468 0-0.925-0.143-1.314-0.412s-0.692-0.651-0.872-1.098-0.226-0.939-0.135-1.414c0.091-0.475 0.316-0.911 0.647-1.253zM33.227 12.849c-0.444-0.459-0.693-1.082-0.693-1.731s0.249-1.272 0.693-1.731c0.444-0.459 1.046-0.717 1.674-0.717s1.23 0.258 1.674 0.717c0.22 0.227 0.394 0.497 0.513 0.794s0.18 0.616 0.18 0.937c0 0.322-0.061 0.64-0.18 0.937s-0.293 0.567-0.513 0.794-0.481 0.408-0.768 0.531c-0.287 0.123-0.595 0.186-0.906 0.186-0.628 0-1.23-0.258-1.674-0.717zM40.31 16.704c-0.388 0.403-0.899 0.655-1.447 0.711s-1.097-0.085-1.554-0.4c-0.458-0.315-0.796-0.785-0.956-1.329s-0.133-1.129 0.077-1.655c0.21-0.526 0.59-0.96 1.075-1.228s1.045-0.354 1.584-0.243c0.539 0.111 1.025 0.412 1.374 0.852s0.539 0.991 0.539 1.56c0 0.322-0.062 0.641-0.182 0.938s-0.296 0.567-0.517 0.793h0.006zM44.084 12.802c-0.331 0.343-0.754 0.576-1.213 0.671s-0.936 0.046-1.369-0.14c-0.433-0.186-0.803-0.5-1.063-0.903s-0.399-0.877-0.399-1.361c0-0.485 0.139-0.958 0.399-1.361s0.63-0.717 1.063-0.903c0.433-0.185 0.909-0.234 1.369-0.14s0.882 0.328 1.213 0.671c0.443 0.461 0.691 1.085 0.69 1.734s-0.252 1.273-0.696 1.732h0.006z"></path>
<path fill="#61a568" style="fill: var(--color6, #61a568)" d="M10.993 6.409c-0.896 0-1.772 0.275-2.517 0.79s-1.326 1.246-1.668 2.102c-0.343 0.856-0.433 1.798-0.258 2.707s0.606 1.744 1.24 2.399c0.634 0.655 1.441 1.101 2.319 1.282s1.79 0.088 2.617-0.267c0.828-0.355 1.535-0.955 2.033-1.726s0.763-1.676 0.763-2.603c-0.001-1.242-0.478-2.433-1.328-3.312s-2.001-1.372-3.202-1.373zM14.815 11.127c0 0.203-0.078 0.398-0.217 0.541s-0.327 0.224-0.524 0.224h-2.35v2.424c-0.012 0.195-0.096 0.377-0.234 0.511s-0.32 0.208-0.508 0.208-0.37-0.074-0.508-0.208c-0.138-0.133-0.221-0.316-0.234-0.511v-2.431h-2.337c-0.196 0-0.385-0.081-0.524-0.224s-0.217-0.338-0.217-0.541c0-0.203 0.078-0.398 0.217-0.541s0.327-0.224 0.524-0.224h2.347v-2.431c-0.007-0.105 0.008-0.21 0.042-0.309s0.088-0.19 0.157-0.267c0.070-0.077 0.154-0.138 0.247-0.18s0.194-0.064 0.296-0.064 0.202 0.022 0.296 0.064c0.093 0.042 0.177 0.103 0.247 0.18s0.123 0.168 0.157 0.267c0.034 0.099 0.048 0.205 0.042 0.309v2.431h2.35c0.196 0.003 0.383 0.085 0.52 0.23s0.213 0.34 0.211 0.542z"></path>
<path fill="#61a568" style="fill: var(--color6, #61a568)" d="M42.403 10.155c-0.205 0-0.404 0.074-0.562 0.208s-0.267 0.322-0.306 0.53c-0.040 0.208-0.009 0.424 0.088 0.61s0.253 0.333 0.443 0.414c0.189 0.081 0.4 0.091 0.596 0.029s0.365-0.192 0.479-0.369c0.113-0.176 0.164-0.388 0.144-0.599s-0.111-0.408-0.257-0.557c-0.166-0.17-0.391-0.266-0.625-0.266z"></path>
<path fill="#61a568" style="fill: var(--color6, #61a568)" d="M58.362 10.761c-0.298 0.141-0.609 0.252-0.927 0.333-0.301 0.079-0.61 0.121-0.921 0.127-0.688 0.015-1.369-0.142-1.986-0.456-0.546-0.281-1.003-0.718-1.317-1.259-0.314-0.555-0.475-1.188-0.464-1.831-0.023-0.76 0.147-1.513 0.493-2.184 0.305-0.569 0.765-1.032 1.323-1.332 0.568-0.299 1.198-0.451 1.835-0.443 0.41-0.003 0.819 0.048 1.217 0.15 0.349 0.088 0.686 0.219 1.005 0.39l-0.454 1.332c-0.244-0.13-0.503-0.229-0.769-0.296-0.265-0.080-0.539-0.125-0.815-0.133-0.644-0.046-1.28 0.169-1.774 0.599-0.216 0.236-0.382 0.516-0.488 0.822s-0.148 0.632-0.124 0.956c-0.010 0.415 0.094 0.825 0.299 1.182 0.199 0.337 0.489 0.607 0.834 0.776 0.383 0.185 0.801 0.278 1.223 0.27 0.332 0.020 0.664-0.045 0.966-0.19v-0.892h-1.227v-1.398h2.646v3.107c-0.169 0.159-0.364 0.285-0.576 0.373z"></path>
<path fill="#61a568" style="fill: var(--color6, #61a568)" d="M64.074 9.689h-2.357l-0.58 1.438h-1.381l3.219-7.658h0.077l3.22 7.658h-1.61l-0.589-1.438zM63.61 8.47l-0.686-1.788-0.715 1.788h1.401z"></path>
<path fill="#61a568" style="fill: var(--color6, #61a568)" d="M74.586 3.476v7.658h-1.4v-3.513l-2.318 3.406h-0.032l-2.231-3.187v3.286h-1.352v-7.658l3.603 5.284 3.69-5.284 0.042 0.007z"></path>
<path fill="#61a568" style="fill: var(--color6, #61a568)" d="M77.822 3.776v7.352h-1.4v-7.352h1.4z"></path>
<path fill="#61a568" style="fill: var(--color6, #61a568)" d="M86.061 3.775v7.658h-0.039l-4.974-4.651 0.029 4.345h-1.42v-7.658h0.058l4.965 4.731-0.029-4.425h1.41z"></path>
<path fill="#61a568" style="fill: var(--color6, #61a568)" d="M93.076 10.761c-0.298 0.141-0.609 0.252-0.927 0.333-0.3 0.079-0.61 0.121-0.92 0.127-0.688 0.015-1.37-0.142-1.987-0.456-0.546-0.281-1.003-0.718-1.317-1.259-0.314-0.555-0.475-1.188-0.464-1.831-0.023-0.76 0.147-1.513 0.493-2.184 0.305-0.569 0.766-1.032 1.324-1.332 0.568-0.307 1.2-0.466 1.841-0.463 0.411-0.003 0.82 0.048 1.218 0.15 0.348 0.088 0.686 0.219 1.004 0.39l-0.454 1.332c-0.244-0.13-0.503-0.229-0.77-0.296-0.265-0.080-0.539-0.125-0.815-0.133-0.644-0.046-1.28 0.169-1.773 0.599-0.216 0.236-0.382 0.516-0.488 0.822s-0.147 0.632-0.124 0.956c-0.009 0.415 0.094 0.825 0.299 1.182 0.2 0.337 0.489 0.607 0.834 0.776 0.382 0.185 0.801 0.278 1.223 0.27 0.332 0.020 0.664-0.045 0.966-0.19v-0.872h-1.227v-1.398h2.647v3.106c-0.171 0.16-0.368 0.286-0.583 0.373z"></path>
<path fill="#61a568" style="fill: var(--color6, #61a568)" d="M57.654 22.974c-0.412 0.157-0.849 0.235-1.288 0.23-0.676 0.017-1.343-0.156-1.932-0.499-0.531-0.314-0.966-0.775-1.256-1.332-0.292-0.57-0.441-1.206-0.435-1.851-0.012-0.686 0.137-1.365 0.435-1.978 0.276-0.573 0.705-1.051 1.236-1.378 0.548-0.33 1.173-0.497 1.806-0.483 0.406-0.004 0.81 0.057 1.198 0.18 0.339 0.107 0.664 0.258 0.966 0.449l-0.551 1.369c-0.443-0.374-0.993-0.585-1.565-0.599-0.36-0-0.712 0.107-1.014 0.31-0.318 0.208-0.577 0.499-0.753 0.842-0.189 0.364-0.285 0.772-0.28 1.185-0.009 0.429 0.080 0.855 0.261 1.242 0.165 0.347 0.423 0.637 0.744 0.836 0.343 0.206 0.734 0.309 1.13 0.3 0.32 0.005 0.639-0.055 0.937-0.176 0.237-0.095 0.456-0.235 0.644-0.413l0.58 1.299c-0.262 0.202-0.553 0.36-0.863 0.47z"></path>
<path fill="#61a568" style="fill: var(--color6, #61a568)" d="M61.315 15.762v5.953h3.342v1.398h-4.742v-7.352h1.401z"></path>
<path fill="#61a568" style="fill: var(--color6, #61a568)" d="M67.564 21.066c0.138 0.215 0.323 0.393 0.541 0.519 0.22 0.132 0.47 0.201 0.724 0.2 0.267 0.003 0.53-0.066 0.763-0.2 0.221-0.123 0.408-0.302 0.544-0.519 0.127-0.197 0.197-0.429 0.2-0.666v-4.638h1.381v4.661c0.006 0.503-0.128 0.996-0.386 1.422-0.256 0.425-0.618 0.771-1.050 0.999-0.449 0.234-0.946 0.356-1.449 0.356s-0.999-0.122-1.449-0.356c-0.428-0.228-0.788-0.574-1.040-0.999-0.255-0.427-0.387-0.92-0.38-1.422v-4.661h1.4v4.635c0.001 0.239 0.070 0.472 0.2 0.669z"></path>
<path fill="#61a568" style="fill: var(--color6, #61a568)" d="M77.941 19.941c0.21 0.287 0.324 0.638 0.322 0.999 0.023 0.313-0.029 0.628-0.154 0.915s-0.316 0.537-0.558 0.727c-0.521 0.365-1.142 0.549-1.771 0.526h-2.37v-7.345h2.086c0.625-0.036 1.246 0.129 1.777 0.473 0.211 0.154 0.381 0.361 0.493 0.602s0.164 0.506 0.151 0.773c0.007 0.335-0.069 0.667-0.222 0.962-0.147 0.276-0.364 0.506-0.628 0.666 0.343 0.156 0.643 0.397 0.873 0.703zM74.808 18.769h0.856c0.111 0.007 0.222-0.012 0.326-0.055s0.197-0.108 0.273-0.192c0.143-0.165 0.219-0.381 0.212-0.603 0.007-0.107-0.011-0.215-0.053-0.314s-0.107-0.185-0.188-0.252c-0.195-0.14-0.43-0.208-0.666-0.193h-0.753l-0.006 1.608zM76.501 21.559c0.102-0.063 0.186-0.153 0.242-0.261s0.084-0.229 0.080-0.352c0-0.519-0.399-0.779-1.198-0.779h-0.802v1.598h0.898c0.273 0.010 0.544-0.062 0.779-0.206z"></path>
</symbol>
<symbol id="icon-display" viewBox="0 0 32 32">
<path fill="#f5f5f5" style="fill: var(--color2, #f5f5f5)" d="M0 2v20h32v-20h-32zM30 20h-28v-16h28v16zM21 24h-10l-1 4-2 2h16l-2-2-1-4z"></path>
</symbol>
<symbol id="icon-location" viewBox="0 0 32 32">
<path fill="#f5f5f5" style="fill: var(--color2, #f5f5f5)" d="M16 0c-5.523 0-10 4.477-10 10 0 10 10 22 10 22s10-12 10-22c0-5.523-4.477-10-10-10zM16 16c-3.314 0-6-2.686-6-6s2.686-6 6-6c3.314 0 6 2.686 6 6s-2.686 6-6 6z"></path>
</symbol>
<symbol id="icon-user" viewBox="0 0 34 32">
<path fill="#f5f5f5" style="fill: var(--color2, #f5f5f5)" d="M21.513 24.082v-1.649c1.975-1.241 3.585-4.337 3.585-7.432 0-4.971 0-9-5.378-9s-5.378 4.029-5.378 9c0 3.096 1.611 6.191 3.585 7.432v1.649c-6.081 0.555-10.756 3.888-10.756 7.918h25.098c0-4.030-4.676-7.364-10.756-7.918z"></path>
<path fill="#f5f5f5" style="fill: var(--color2, #f5f5f5)" d="M9.165 24.854c1.549-1.13 3.475-1.989 5.596-2.513-0.421-0.556-0.804-1.176-1.134-1.844-0.852-1.726-1.302-3.627-1.302-5.497 0-2.689 0-5.228 0.857-7.305 0.832-2.016 2.329-3.265 4.46-3.734-0.474-2.39-1.735-3.961-5.093-3.961-5.378 0-5.378 4.029-5.378 9 0 3.096 1.611 6.191 3.585 7.432v1.649c-6.081 0.555-10.756 3.888-10.756 7.918h7.815c0.407-0.403 0.857-0.787 1.35-1.146v0.001z"></path>
</symbol>
<symbol id="icon-credit" viewBox="0 0 43 32">
<path fill="#f5f5f5" style="fill: var(--color2, #f5f5f5)" d="M38.667 0h-34.667c-2.2 0-4 1.8-4 4v24c0 2.2 1.8 4 4 4h34.667c2.2 0 4-1.8 4-4v-24c0-2.2-1.8-4-4-4zM4 2.667h34.667c0.723 0 1.333 0.611 1.333 1.333v4h-37.333v-4c0-0.723 0.611-1.333 1.333-1.333zM38.667 29.333h-34.667c-0.723 0-1.333-0.611-1.333-1.333v-12h37.333v12c0 0.723-0.611 1.333-1.333 1.333zM5.333 21.333h2.667v5.333h-2.667v-5.333zM10.667 21.333h2.667v5.333h-2.667v-5.333zM16 21.333h2.667v5.333h-2.667v-5.333z"></path>
</symbol>
<symbol id="icon-message" viewBox="0 0 32 32">
<path fill="#61a568" style="fill: var(--color6, #61a568)" d="M13.333 0c7.364 0 13.333 5.435 13.333 12.139s-5.97 12.139-13.333 12.139c-0.708 0-1.401-0.051-2.079-0.147-2.864 3.209-6.172 3.785-9.476 3.869v-0.785c1.785-0.98 3.222-2.765 3.222-4.804 0-0.285-0.020-0.564-0.056-0.837-3.015-2.225-4.944-5.625-4.944-9.434 0-6.704 5.97-12.139 13.333-12.139v-0.001zM27.667 27.209c0 1.748 1.009 3.278 2.556 4.118v0.673c-2.865-0.072-5.494-0.566-7.976-3.316-0.588 0.083-1.188 0.126-1.802 0.126-2.652 0-5.095-0.805-7.044-2.157 4.019-0.016 7.812-1.464 10.69-4.084 1.45-1.32 2.595-2.87 3.4-4.605 0.854-1.84 1.288-3.799 1.288-5.825 0-0.326-0.012-0.651-0.035-0.974 2.016 1.873 3.257 4.426 3.257 7.24 0 3.265-1.671 6.179-4.284 8.086-0.032 0.234-0.049 0.474-0.049 0.718z"></path>
</symbol>
<symbol id="icon-earth" viewBox="0 0 32 32">
<path fill="#61a568" style="fill: var(--color6, #61a568)" d="M16 0c-8.837 0-16 7.163-16 16s7.163 16 16 16c8.837 0 16-7.163 16-16s-7.163-16-16-16zM16 30c-1.967 0-3.84-0.407-5.538-1.139l7.286-8.197c0.163-0.183 0.253-0.419 0.253-0.664v-3c0-0.552-0.448-1-1-1-3.531 0-7.256-3.671-7.293-3.707-0.188-0.188-0.442-0.293-0.707-0.293h-4c-0.552 0-1 0.448-1 1v6c0 0.379 0.214 0.725 0.553 0.894l3.447 1.724v5.871c-3.627-2.53-6-6.732-6-11.489 0-2.147 0.484-4.181 1.348-6h3.652c0.265 0 0.52-0.105 0.707-0.293l4-4c0.188-0.188 0.293-0.442 0.293-0.707v-2.419c1.268-0.377 2.61-0.581 4-0.581 2.2 0 4.281 0.508 6.134 1.412-0.13 0.109-0.256 0.224-0.376 0.345-1.133 1.133-1.757 2.64-1.757 4.243s0.624 3.109 1.757 4.243c1.139 1.139 2.663 1.758 4.239 1.758 0.099 0 0.198-0.002 0.297-0.007 0.432 1.619 1.211 5.833-0.263 11.635-0.014 0.055-0.022 0.109-0.026 0.163-2.541 2.596-6.084 4.208-10.004 4.208h-0.002z"></path>
</symbol>
<symbol id="icon-steam" viewBox="0 0 32 32">
<path fill="#61a568" style="fill: var(--color6, #61a568)" d="M9.498 26.125c0.848 0 1.681-0.41 2.187-1.169 0.804-1.206 0.478-2.836-0.728-3.64l-2.065-1.377c0.353-0.096 0.725-0.149 1.109-0.149 2.325 0 4.209 1.884 4.209 4.209s-1.885 4.209-4.209 4.209c-2.263 0-4.108-1.785-4.205-4.024l2.249 1.499c0.448 0.298 0.953 0.441 1.454 0.441l-0.001 0.001zM26.667 0c2.934 0 5.333 2.4 5.333 5.334v21.332c0 2.936-2.399 5.334-5.333 5.334h-21.333c-2.934 0-5.334-2.398-5.334-5.334v-6.345l3.792 2.528c-0.364 1.974 0.217 4.088 1.744 5.615 2.466 2.466 6.463 2.466 8.929 0 1.515-1.515 2.098-3.607 1.752-5.568l7.783-6.968c1.445-0.207 2.838-0.867 3.95-1.979 2.734-2.734 2.734-7.166 0-9.899s-7.166-2.734-9.9 0c-1.112 1.112-1.771 2.505-1.979 3.95l-6.397 9.695c-0.995 0.051-1.981 0.336-2.866 0.856l-6.808-4.539v-8.678c0-2.934 2.4-5.334 5.334-5.334h21.333zM28 9c0-2.761-2.239-5-5-5s-5 2.239-5 5c0 2.761 2.239 5 5 5s5-2.239 5-5zM20 9c0-1.657 1.343-3 3-3s3 1.343 3 3c0 1.657-1.343 3-3 3s-3-1.343-3-3z"></path>
</symbol>
<symbol id="icon-headphones" viewBox="0 0 31 32">
<path fill="#61a568" style="fill: var(--color6, #61a568)" d="M31.304 16.203c0-8.569-7.007-15.515-15.652-15.515s-15.652 6.946-15.652 15.515c0 1.861 0.331 3.645 0.937 5.298-0.596 1.006-0.937 2.178-0.937 3.429 0 3.419 2.551 6.248 5.87 6.719v-13.437c-0.975 0.139-1.885 0.48-2.682 0.981-0.164-0.81-0.252-1.647-0.252-2.506 0-6.962 5.693-12.606 12.717-12.606s12.717 5.643 12.717 12.606c0 0.858-0.086 1.696-0.251 2.506-0.798-0.501-1.707-0.844-2.683-0.982v13.438c3.318-0.47 5.87-3.299 5.87-6.719 0-1.251-0.341-2.422-0.937-3.429 0.607-1.653 0.937-3.438 0.937-5.299v0.001z"></path>
</symbol>
<symbol id="icon-cup" viewBox="0 0 31 32">
<path fill="#61a568" style="fill: var(--color6, #61a568)" d="M25.435 5.103v-4.423h-19.565v4.423h-5.87v4.423c0 3.664 2.628 6.634 5.87 6.634 0.613 0 1.205-0.106 1.762-0.304 1.412 2.281 3.565 3.932 6.064 4.506v6.855h-1.957c-2.161 0-3.913 1.98-3.913 4.423h15.652c0-2.442-1.752-4.423-3.913-4.423h-1.957v-6.855c2.499-0.574 4.653-2.225 6.064-4.506 0.556 0.198 1.148 0.304 1.762 0.304 3.242 0 5.87-2.97 5.87-6.634v-4.423h-5.87zM5.87 13.534c-1.956 0-3.546-1.798-3.546-4.008v-2.211h3.546v2.211c0 1.389 0.227 2.717 0.641 3.942-0.208 0.043-0.422 0.066-0.641 0.066zM28.981 9.526c0 2.21-1.591 4.008-3.546 4.008-0.219 0-0.432-0.023-0.641-0.066 0.414-1.224 0.641-2.553 0.641-3.942v-2.211h3.546v2.211z"></path>
</symbol>
<symbol id="icon-shop" viewBox="0 0 32 32">
<path fill="#61a568" style="fill: var(--color6, #61a568)" d="M32 20.364v-17.455h-24c0-1.607-0.895-2.909-2-2.909h-6v2.909h4l1.502 18.73c-0.915 1.066-1.502 2.704-1.502 4.543 0 3.213 1.791 5.818 4 5.818h24v-2.909h-24c-1.105 0-2-1.302-2-2.909 0-0.010 0-0.020 0-0.029l26-5.789z"></path>
</symbol>
</defs>
</svg>
